 <svg
                  xmlns="http://www.w3.org/2000/svg"
                  x="0px"
                  y="0px"
                  width="24"
                  height="24"
                  viewBox="0 0 172 172"
                >
                  <g
                    fill="none"
                    fillRule="nonzero"
                    stroke="none"
                    strokeWidth="1"
                    strokeLinecap="butt"
                    strokeLinejoin="miter"
                    strokeMiterlimit="10"
                    strokeDasharray=""
                    strokeDashoffset="0"
                    fontFamily="none"
                    fontWeight="none"
                    fontSize="none"
                    textAnchor="none"
                  >
                    <path d="M0,172v-172h172v172z" fill="none" />
                    <g fill="#d9e3f0">
                      <path d="M155.04367,28.88883c-5.84083,2.75917 -15.781,7.9335 -20.77617,8.9225c-0.1935,0.05017 -0.35117,0.11467 -0.5375,0.16483c-5.8265,-5.74767 -13.81017,-9.3095 -22.64667,-9.3095c-17.80917,0 -32.25,14.44083 -32.25,32.25c0,0.93883 -0.07883,2.666 0,3.58333c-23.06233,0 -39.904,-12.03283 -52.51017,-27.4985c-1.68417,-2.07833 -3.47583,-0.99617 -3.8485,0.48017c-0.8385,3.33967 -1.12517,8.9225 -1.12517,12.90717c0,10.0405 7.8475,19.90183 20.06667,26.015c-2.25033,0.5805 -4.73,0.99617 -7.31,0.99617c-3.03867,0 -6.536,-0.7955 -9.59617,-2.40083c-1.13233,-0.59483 -3.57617,-0.43 -2.85233,2.46533c2.9025,11.60283 16.1465,19.75133 27.97867,22.1235c-2.6875,1.58383 -8.42083,1.26133 -11.05817,1.26133c-0.97467,0 -4.3645,-0.22933 -6.5575,-0.50167c-1.9995,-0.24367 -5.074,0.27233 -2.50117,4.171c5.5255,8.3635 18.02417,13.61667 28.78133,13.81733c-9.90433,7.76867 -26.101,10.60667 -41.61683,10.60667c-3.139,-0.07167 -2.98133,3.5045 -0.4515,4.83033c11.44517,6.00567 30.19317,9.56033 43.58767,9.56033c53.24833,0 83.51317,-40.58483 83.51317,-78.8405c0,-0.61633 -0.01433,-1.90633 -0.03583,-3.2035c0,-0.129 0.03583,-0.25083 0.03583,-0.37983c0,-0.1935 -0.05733,-0.37983 -0.05733,-0.57333c-0.0215,-0.97467 -0.043,-1.88483 -0.0645,-2.35783c4.22117,-3.04583 10.6855,-8.33483 13.9535,-12.384c1.11083,-1.376 0.215,-3.04583 -1.29717,-2.52267c-3.8915,1.3545 -10.621,3.9775 -14.835,4.47917c8.43517,-5.58283 12.60617,-10.44183 16.1895,-15.83833c1.2255,-1.84183 -0.30817,-3.71233 -2.17867,-2.82367z" />
                    </g>
                  </g>
                </svg>